<?xml version="1.0" encoding="utf-8"?>
<!-- Generator: Adobe Illustrator 19.2.1, SVG Export Plug-In . SVG Version: 6.00 Build 0)  -->
<svg version="1.1" id="Layer_1" xmlns="http://www.w3.org/2000/svg" xmlns:xlink="http://www.w3.org/1999/xlink" x="0px" y="0px"
	 width="211.8px" height="287.1px" viewBox="0 0 211.8 287.1" style="enable-background:new 0 0 211.8 287.1;" xml:space="preserve"
	>
<style type="text/css">
	.st0{fill:#BFBFBF;}
	.st1{fill:#A291C2;}
</style>
<g>
	<polygon class="st0" points="5.3,259.5 42.7,259.5 42.7,254.2 5.3,254.2 5.3,232 46.3,232 46.3,226.6 0,226.6 0,287.1 47.2,287.1 
		47.2,281.8 5.3,281.8 	"/>
	<polygon class="st0" points="132.6,226.6 125.5,226.6 103.2,252.4 81,226.6 73.9,226.6 99.7,256 73,287.1 80.1,287.1 103.2,260.4 
		126.4,287.1 133.5,287.1 106.8,256 	"/>
	<path class="st0" d="M186.9,226.6h-23.1v60.5h4.5v-22.3H186c16,0,25.8-7.1,25.8-19.6l0,0C211.8,233.7,202.9,226.6,186.9,226.6z
		 M186,259.5h-17.8V232H186c12.5,0,20.5,5.3,20.5,13.4l0,0C206.5,254.2,199.4,259.5,186,259.5z"/>
</g>
<path class="st1" d="M101.6,2.8L15.5,51c-3.2,1.6-4.7,4.7-4.7,7.9v74.2c0,3.2,1.6,6.3,4.7,7.1l86.1,48.2c2.4,1.6,5.5,1.6,8.7,0
	l86.1-48.2c2.4-1.6,4.7-4.7,4.7-7.1V58.9c0-3.2-1.6-6.3-4.7-7.1l-86.9-49C107.1,2,104,2,101.6,2.8 M176.6,88.1l-67.1,37.1
	c-2.4,1.6-5.5,1.6-8.7,0l-29.2-16.6c-2.4-1.6-4.7-4.7-4.7-7.1V90.5c0-3.2,1.6-5.5,3.9-7.1L100,66.8c2.4-1.6,5.5-1.6,8.7,0l11.1,5.5
	c1.6,0.8,1.6,3.9,0,4.7l-26.8,15c-3.2,1.6-3.2,5.5,0,7.9l7.9,4.7c2.4,1.6,5.5,1.6,8.7,0l44.2-24.5c3.9-2.4,3.9-7.1,0-9.5l-44.2-24.5
	c-2.4-1.6-5.5-1.6-8.7,0L53.4,72.3c-3.2,1.6-4.7,4.7-4.7,7.9v31.6c0,3.2,1.6,6.3,4.7,7.1l48.2,26.8c2.4,1.6,5.5,1.6,8.7,0l65.5-36.3
	c2.4-1.6,6.3,0.8,6.3,3.9v9.5c0,3.2-1.6,6.3-4.7,7.1l-67.1,37.1c-2.4,1.6-5.5,1.6-8.7,0L34.5,130c-2.4-1.6-4.7-4.7-4.7-7.1V69.2
	c0-3.2,1.6-6.3,4.7-7.1l67.1-37.1c2.4-1.6,5.5-1.6,8.7,0l66.3,37.1c2.4,1.6,4.7,4.7,4.7,7.1v11.1C181.3,83.4,179.8,86.5,176.6,88.1"
	/>
</svg>
