<svg id="Layer_1" data-name="Layer 1" xmlns="http://www.w3.org/2000/svg" viewBox="0 0 211.84 287.14"><defs><style>.cls-1{fill:#6a5f79;}.cls-2{fill:#a291c2;}.cls-3{fill:#7e7292;}.cls-4{fill:#c1c0c0;}</style></defs><title>exp_logo_large</title><polygon id="_Path_" data-name="&lt;Path&gt;" class="cls-1" points="201.08 53.09 201.08 138.04 105.92 191.13 105.92 169.89 182.04 127.42 182.04 106.18 105.92 148.66 105.92 127.42 182.04 84.95 182.04 63.71 201.08 53.09"/><polygon id="_Path_2" data-name="&lt;Path&gt;" class="cls-2" points="105.92 106.18 163.01 74.33 105.92 42.47 48.83 74.33 67.86 84.95 105.46 63.45 124.95 74.33 86.89 95.56 105.92 106.18"/><polygon id="_Path_3" data-name="&lt;Path&gt;" class="cls-2" points="182.04 63.71 201.08 53.09 105.92 0 10.77 53.09 29.8 63.71 105.92 21.24 182.04 63.71"/><polygon id="_Path_4" data-name="&lt;Path&gt;" class="cls-3" points="48.83 74.33 48.83 116.8 105.92 148.66 105.92 127.42 67.86 106.18 67.86 84.95 48.83 74.33"/><polygon id="_Path_5" data-name="&lt;Path&gt;" class="cls-3" points="10.77 53.09 10.77 138.04 105.92 191.13 105.92 169.89 29.8 127.42 29.8 63.71 10.77 53.09"/><g id="_Group_" data-name="&lt;Group&gt;"><g id="_Group_2" data-name="&lt;Group&gt;"><polygon id="_Path_6" data-name="&lt;Path&gt;" class="cls-4" points="171.19 258 171.19 229.86 171.19 223.19 163.97 223.19 163.97 287.14 171.19 287.14 171.19 278.82 171.19 264.57 171.19 258"/><path id="_Path_7" data-name="&lt;Path&gt;" class="cls-4" d="M187.91,223.19h-9.5v6.67h9c10.32,0,17.17,4.75,17.17,14,0,8.5-6.94,14.16-17.54,14.16H178.4v6.58h8.31c13.61,0,25.12-7.13,25.12-21C211.84,230.86,202.34,223.19,187.91,223.19Z"/></g><g id="_Group_3" data-name="&lt;Group&gt;"><polygon id="_Path_8" data-name="&lt;Path&gt;" class="cls-4" points="46.23 223.19 14.43 223.19 14.43 226.03 14.43 229.77 46.23 229.77 46.23 223.19"/><polygon id="_Path_9" data-name="&lt;Path&gt;" class="cls-4" points="42.11 251.6 14.43 251.6 14.43 256.41 14.43 258.18 42.11 258.18 42.11 251.6"/><rect id="_Path_10" data-name="&lt;Path&gt;" class="cls-4" y="223.19" width="7.21" height="63.95"/><rect id="_Path_11" data-name="&lt;Path&gt;" class="cls-4" x="14.42" y="280.56" width="32.26" height="6.58"/></g><g id="_Group_4" data-name="&lt;Group&gt;"><polygon id="_Path_12" data-name="&lt;Path&gt;" class="cls-4" points="108.23 253.97 131.55 223.19 123.14 223.19 103.68 249.32 84.04 223.19 75.55 223.19 99.21 254.52 74.63 287.14 82.94 287.14 103.41 259.64 108.23 253.97 108.23 253.97"/><polygon id="_Path_13" data-name="&lt;Path&gt;" class="cls-4" points="111.67 259.47 107.25 264.8 123.87 287.14 132.46 287.14 111.67 259.47"/></g></g></svg>