<svg version="1.0" xmlns="http://www.w3.org/2000/svg"
 width="512.000000pt" height="512.000000pt" viewBox="0 0 512.000000 512.000000"
 preserveAspectRatio="xMidYMid meet">
<g transform="translate(0.000000,512.000000) scale(0.100000,-0.100000)"
fill="#000000" stroke="none">
<path d="M2285 5114 c-27 -2 -120 -8 -205 -14 -634 -45 -1205 -192 -1494 -384
-166 -111 -240 -215 -239 -336 1 -74 69 -508 214 -1360 153 -901 156 -918 187
-973 58 -107 242 -245 449 -337 387 -171 825 -252 1368 -253 429 0 775 50
1125 165 363 118 638 299 698 461 32 85 383 2179 385 2298 1 52 -4 76 -26 120
-140 288 -767 515 -1637 594 -163 15 -712 28 -825 19z m635 -364 c621 -38
1060 -160 1060 -295 0 -130 -396 -242 -1010 -286 -214 -15 -802 -6 -998 15
-462 50 -748 135 -818 242 -91 138 356 282 996 323 195 12 579 13 770 1z
m-138 -1430 c109 -37 187 -87 278 -179 139 -140 201 -292 201 -490 0 -108 -10
-166 -48 -261 -152 -385 -618 -556 -982 -359 -95 51 -171 115 -229 194 -213
286 -186 673 63 920 91 90 157 133 265 171 131 45 321 47 452 4z"/>
<path d="M2428 2977 c-285 -120 -293 -513 -13 -644 51 -24 73 -28 145 -28 73
0 94 4 147 29 72 33 137 97 173 171 21 42 25 64 25 145 0 81 -4 103 -26 150
-33 70 -99 136 -169 169 -80 37 -203 41 -282 8z"/>
<path d="M941 1508 c-32 -12 -50 -37 -51 -71 0 -45 150 -826 170 -884 69 -198
340 -368 738 -464 350 -84 855 -111 1187 -64 315 44 538 107 730 202 210 105
321 219 359 368 22 87 156 806 156 837 0 14 -9 37 -21 52 -34 43 -73 36 -181
-34 -800 -519 -2129 -517 -2943 5 -91 58 -111 66 -144 53z"/>
</g>
</svg>
