<?xml version="1.0" encoding="utf-8"?>
<!-- Generator: Adobe Illustrator 18.1.1, SVG Export Plug-In . SVG Version: 6.00 Build 0)  -->
<svg version="1.1"
	 id="svg2" xmlns:cc="http://creativecommons.org/ns#" xmlns:rdf="http://www.w3.org/1999/02/22-rdf-syntax-ns#" xmlns:svg="http://www.w3.org/2000/svg" xmlns:inkscape="http://www.inkscape.org/namespaces/inkscape" xmlns:sodipodi="http://sodipodi.sourceforge.net/DTD/sodipodi-0.dtd" xmlns:dc="http://purl.org/dc/elements/1.1/" inkscape:export-ydpi="90" inkscape:export-filename="C:\Users\Simran\Desktop\MaterialDesignIcons\google-calendar.png" inkscape:export-xdpi="90" sodipodi:docname="google-calendar.svg" inkscape:version="0.91 r13725"
	 xmlns="http://www.w3.org/2000/svg" xmlns:xlink="http://www.w3.org/1999/xlink" x="0px" y="0px" width="24px" height="24px"
	 viewBox="-293 385 24 24" enable-background="new -293 385 24 24" xml:space="preserve">
<sodipodi:namedview  id="base" bordercolor="#666666" pagecolor="#ffffff" inkscape:cx="8.673198" borderopacity="1.0" inkscape:zoom="22.627417" inkscape:cy="11.546053" showgrid="true" units="px" inkscape:window-maximized="1" inkscape:window-y="-8" inkscape:window-x="-8" inkscape:window-height="837" inkscape:window-width="1440" inkscape:snap-midpoints="true" inkscape:object-nodes="true" inkscape:current-layer="layer1" inkscape:document-units="px" inkscape:pageopacity="0.0" inkscape:pageshadow="2">
	<inkscape:grid  type="xygrid" id="grid4136"></inkscape:grid>
</sodipodi:namedview>
<path d="M-272,390.1V389c0-1.1-0.9-2-2-2h-14c-1.1,0-2,0.9-2,2v1.3c-1.3,0.6-1,2.1-1,2.1l1,6.1l-0.5,6.1c0,0-0.5,2.4,2.5,2.4h15
	c2,0,1.5-2.4,1.5-2.4l-0.5-6.1l1-6.1C-271,392.4-270.6,390.4-272,390.1z M-277,389c0.6,0,1,0.4,1,1s-0.4,1-1,1s-1-0.4-1-1
	S-277.6,389-277,389z M-285,389c0.6,0,1,0.4,1,1s-0.4,1-1,1s-1-0.4-1-1S-285.6,389-285,389z M-281.8,402.3c-0.5,0.5-1.3,0.7-2.2,0.7
	c-0.9,0-1.6-0.2-2.1-0.7c-0.4-0.3-0.7-0.8-0.8-1.3c0-0.2,0-0.3,0-0.5h1.5c0,0.2,0,0.4,0.1,0.5c0.1,0.2,0.2,0.3,0.3,0.4
	c0.3,0.2,0.6,0.4,1.1,0.4c0.5,0,0.8-0.1,1.1-0.4c0.1-0.1,0.2-0.3,0.3-0.4c0.1-0.2,0.1-0.4,0.1-0.6c0-0.5-0.1-0.8-0.4-1.1
	c-0.3-0.3-0.7-0.4-1.2-0.4h-0.9v-0.4v-0.7h0.9c0.5,0,0.8-0.1,1.1-0.4c0.3-0.2,0.4-0.6,0.4-1c0-0.4-0.1-0.8-0.3-1
	c-0.2-0.2-0.6-0.4-1-0.4c-0.4,0-0.7,0.1-1,0.3c-0.3,0.2-0.4,0.5-0.4,0.9h-1.5c0-0.5,0.1-0.9,0.4-1.2c0.2-0.4,0.6-0.7,1-0.9
	c0.4-0.2,0.9-0.3,1.5-0.3c0.9,0,1.6,0.2,2.1,0.7c0.5,0.4,0.8,1.1,0.8,1.9c0,0.4-0.1,0.8-0.4,1.1c-0.3,0.4-0.6,0.6-1,0.8
	c0.1,0,0.3,0.1,0.4,0.2c0.3,0.2,0.6,0.3,0.7,0.6c0.3,0.4,0.4,0.8,0.4,1.3c0,0.2,0,0.4-0.1,0.6C-281.2,401.5-281.4,401.9-281.8,402.3
	z M-276,401v1.9h-1.5V401v-2.5v-2.8l-2.2,0.7v-1.2l3.5-1.3h0.2v4.5V401z"/>
</svg>
