<?xml version="1.0" encoding="utf-8"?>
<!-- Generator: Adobe Illustrator 19.2.1, SVG Export Plug-In . SVG Version: 6.00 Build 0)  -->
<svg version="1.1" id="Layer_1" xmlns="http://www.w3.org/2000/svg" xmlns:xlink="http://www.w3.org/1999/xlink" x="0px" y="0px"
   width="24px" height="24px" viewBox="0 0 24 24" style="enable-background:new 0 0 24 24;" xml:space="preserve">
<path id="path3" d="M14.1,7.1v3.3l1.2,0.7c0,0,0.1,0,0.1,0l5-3.4
  c0-0.4-0.4-0.7-0.6-0.7H14.1z"/>
<path id="path5" d="M14.1,11.7l1.1,0.7c0.1,0.1,0.3,0,0.3,0c-0.2,0.1,4.9-3.3,4.9-3.3
  v6.1c0,0.7-0.4,0.9-0.9,0.9h-5.4L14.1,11.7L14.1,11.7z"/>
<g id="g23" transform="matrix(3.9178712,0,0,3.9178712,-13.481403,-41.384473)">
  <path id="path25" d="M5.6,13.2c-0.1,0-0.2,0-0.2,0.1c-0.1,0.1-0.1,0.2-0.1,0.3
    c0,0.1,0,0.3,0.1,0.3c0.1,0.1,0.1,0.1,0.2,0.1c0.1,0,0.2,0,0.2-0.1c0.1-0.1,0.1-0.2,0.1-0.3c0-0.2,0-0.3-0.1-0.4
    C5.8,13.2,5.7,13.2,5.6,13.2z"/>
  <path id="path27" d="M4.4,12v3.3l2.5,0.5v-4.3L4.4,12z M6.1,14.2
    c-0.1,0.1-0.2,0.2-0.4,0.2c-0.2,0-0.3-0.1-0.4-0.2c-0.1-0.1-0.2-0.3-0.2-0.5c0-0.2,0.1-0.4,0.2-0.6s0.2-0.2,0.4-0.2
    c0.2,0,0.3,0.1,0.4,0.2c0.1,0.1,0.2,0.3,0.2,0.5C6.2,13.8,6.2,14,6.1,14.2z"/>
</g>
</svg>
