<?xml version="1.0" encoding="utf-8"?>
<!-- Generator: Adobe Illustrator 19.2.1, SVG Export Plug-In . SVG Version: 6.00 Build 0)  -->
<svg version="1.1" id="Layer_1" xmlns="http://www.w3.org/2000/svg" xmlns:xlink="http://www.w3.org/1999/xlink" x="0px" y="0px"
   width="512px" height="512px" viewBox="0 0 512 512" style="enable-background:new 0 0 512 512;" xml:space="preserve">
<g>
  <path fill="#000000" fill-opacity="1" class="st1" d="M460.3,457c0,0-46.5-314.3-50.5-341c-0.2-1.1-0.3-1.7-0.3-1.8c-0.2-2.4-2.4-3.6-4-3.7
    c-1.7-0.1-37.4-2.8-37.4-2.8S343.4,83,340.7,80.3c-0.8-0.8-1.9-1.3-3.1-1.6c-0.2,0-0.4-0.1-0.5-0.1c-0.1,0-0.2,0-0.2-0.1l0,0
    c-2.4-0.4-5.1,0.1-6.4,0.5c-0.2,0.1-5.4,1.6-13.9,4.3c-8.3-23.8-22.9-45.7-48.6-45.7c-0.7,0-1.5,0-2.2,0.1
    c-7.3-9.7-16.3-13.9-24.1-13.9C181.6,24,153,98.9,144,136.9c-23.3,7.2-39.9,12.4-42,13c-13,4.1-13.4,4.5-15.1,16.7
    c-1.2,9.3-35.3,272-35.3,272l264.9,49.6l143.6-31.1c0,0,0,0,0-0.1L460.3,457z M263.8,97.2v2.6c-14.6,4.5-30.5,9.4-46.3,14.4
    c8.9-34.5,25.6-51.1,40.2-57.3C261.5,66.1,263.8,79.2,263.8,97.2z M239.9,40c2.6,0,5.2,0.9,7.7,2.6c-19.2,9-39.7,31.8-48.5,77.1
    c-12.8,4-25.1,7.8-36.6,11.3C172.7,96.4,197,40,239.9,40z M250.3,242.4c0,0-15.5-8.3-34.5-8.3c-27.9,0-29.2,17.5-29.2,21.9
    c0,24,62.6,33.3,62.6,89.5c0,44.3-28.1,72.8-66,72.8c-45.4,0-68.7-28.2-68.7-28.2l12.1-40.2c0,0,23.9,20.5,44.1,20.5
    c13.1,0,18.6-10.4,18.6-17.9c0-31.3-51.4-32.8-51.4-84.3c0-43.3,31.2-85.3,94-85.3c24.1,0,36.1,6.9,36.1,6.9L250.3,242.4z
     M279.5,94.8V90c0-14.9-2.1-26.7-5.3-36.1c13.2,1.6,22,16.7,27.7,34C295.3,90,287.7,92.3,279.5,94.8z"/>
</g>
</svg>
