<?xml version="1.0" encoding="utf-8"?>
<!-- Generator: Adobe Illustrator 18.1.1, SVG Export Plug-In . SVG Version: 6.00 Build 0)  -->
<svg version="1.1" id="Layer_1" xmlns="http://www.w3.org/2000/svg" xmlns:xlink="http://www.w3.org/1999/xlink" x="0px" y="0px"
	 width="24px" height="24px" viewBox="-293 385 24 24" enable-background="new -293 385 24 24" xml:space="preserve">
<path d="M-274.1,386.6h-13.8c-1.9,0-3.5,1.6-3.5,3.5v13.8c0,1.9,1.6,3.5,3.5,3.5h13.8c1.9,0,3.5-1.6,3.5-3.5v-13.8
	C-270.6,388.2-272.2,386.6-274.1,386.6z M-274.4,402.5c0,0.6-0.5,1.1-1.1,1.1h-11c-0.6,0-1.1-0.5-1.1-1.1v-11c0-0.6,0.5-1.1,1.1-1.1
	h11c0.6,0,1.1,0.5,1.1,1.1V402.5z"/>
<path d="M-283.2,399.8c-0.3,0-0.6-0.3-0.6-0.6v-4.4c0-0.3,0.3-0.6,0.6-0.6h4.4c0.3,0,0.6,0.3,0.6,0.6v4.4
	c0,0.3-0.3,0.6-0.6,0.6C-278.8,399.8-283.2,399.8-283.2,399.8z"/>
</svg>
